<svg xmlns="http://www.w3.org/2000/svg" viewBox="0 0 1333.333 694.427" height="500" width="600"><path d="M682.179 566.625v-61.6c-9.783-14.853-28.263-24.64-48.192-24.64-30.799 0-52.542 23.918-52.542 55.44 0 31.526 21.743 55.44 52.542 55.44 19.929 0 38.409-9.781 48.192-24.64zm0 46.742c-12.683 10.148-29.351 15.948-48.555 15.948-53.627 0-93.123-40.588-93.123-93.49 0-52.901 39.496-93.482 93.123-93.482 19.204 0 35.872 6.16 48.555 16.302V445.24h39.858v181.175H682.18v-13.048M384.897 236.941v-61.6c-9.784-14.853-28.262-24.64-48.192-24.64-30.798 0-52.541 23.918-52.541 55.44 0 31.524 21.743 55.44 52.541 55.44 19.93 0 38.408-9.781 48.192-24.64zm0 46.742c-12.682 10.148-29.35 15.946-48.556 15.946-53.626 0-93.121-40.586-93.121-93.488 0-52.901 39.495-93.484 93.121-93.484 19.206 0 35.874 6.162 48.556 16.304v-13.406h39.859V296.73h-39.859v-13.048m395.331 103.974v238.938h39.859V368.168l-39.859 19.488m-.015-313.895V326.48l39.859-20.088V54.28h-.013l-39.846 19.481M362.279 514.447h93.124c-4.711-24.64-21.742-36.96-45.656-36.96-21.378 0-40.946 14.136-47.468 36.96zm-42.394 19.929c0-52.901 39.859-93.483 92.762-93.483 50.365 0 84.062 35.51 86.601 93.483v10.87H361.192c3.987 25.729 25.003 43.12 52.179 43.12 21.74 0 37.684-10.143 47.105-20.651l26.813 28.622c-15.581 18.119-42.032 31.527-73.918 31.527-53.627 0-93.486-40.587-93.486-93.488m537.163-90.586h26.805v-34.786l39.858-19.565v54.35h46.397l-.016 35.514h-46.381v82.25c0 18.482 5.073 26.812 25.726 26.812h25.002v36.6h-35.146c-34.785 0-55.44-20.657-55.44-55.08v-90.582h-26.805v-35.514m259.969-2.896c-18.842 0-38.045 6.159-50.728 19.93v-93.128l-.256.23-39.602 19.363v237.677h39.858v-114.14c7.247-21.38 22.828-31.889 43.119-31.889 26.815 0 41.307 21.019 41.307 40.587v105.442h39.858V518.796c0-46.743-28.625-77.903-73.556-77.903m-837.641-73.198l-43.94 20.544v85.986H102.058v-106.53h-.015l-43.94 20.544v240.735h43.955V514.812h133.378v114.162h43.956V367.695h-.016M133.11 164.11c30.8 0 48.917-17.03 48.917-42.758 0-25.724-18.118-42.755-48.917-42.755h-32.974v85.512zM58.103 39.46h76.818c53.266 0 89.862 33.338 89.862 81.891 0 47.83-36.596 81.89-89.862 81.89h-34.785v104.205l-42.033 19.032V39.46m417.038 73.197H515v20.654c11.596-13.771 27.176-20.291 46.742-20.291 4.711 0 9.059.361 13.044 1.088v41.668c-5.434-1.81-12.318-2.536-19.928-2.536-17.03 0-31.888 6.521-39.858 21.74v121.75h-39.86V112.658M601.95 262.67l30.437-21.74c8.696 14.853 18.84 23.19 36.958 23.19 13.77 0 23.191-6.888 23.191-16.67 0-10.509-7.608-16.669-24.277-22.829l-12.682-5.07c-30.801-11.96-44.206-31.162-44.206-55.802 0-29.35 24.638-51.092 58.337-51.092 23.19 0 43.119 9.058 56.525 31.523l-29.35 20.29c-6.16-11.23-14.855-16.302-26.451-16.302-10.507 0-19.93 5.433-19.93 14.492 0 9.421 6.16 15.22 23.191 22.103l13.044 4.709c30.438 11.959 47.47 27.904 47.47 56.168 0 31.883-26.452 53.99-64.862 53.99-28.626 0-52.54-11.598-67.396-36.96m309.431-76.458h93.124c-4.71-24.64-21.74-36.96-45.656-36.96-21.377 0-40.945 14.133-47.468 36.96zm-42.393 19.93c0-52.902 39.858-93.485 92.76-93.485 50.366 0 84.065 35.511 86.602 93.484v10.871H910.293c3.987 25.728 25.003 43.12 52.179 43.12 21.74 0 37.684-10.145 47.105-20.652l26.814 28.623c-15.582 18.118-42.032 31.526-73.919 31.526-53.627 0-93.485-40.586-93.485-93.488m269.943 78.634l-71.383-171.755h42.757l49.279 125.01 49.642-125.01h42.756l-103.63 247.845h-42.032l32.612-76.09" fill="#39bda9"/></svg>