<svg xmlns="http://www.w3.org/2000/svg" viewBox="0 0 369 365.227" height="365.227" width="369"><path d="M252.305 293.779c-1.569 10.302-9.437 10.302-17.048 10.302h-4.33l3.037-19.236a2.393 2.393 0 0 1 2.364-2.018h1.984c5.181 0 10.075 0 12.597 2.95 1.51 1.767 1.967 4.385 1.396 8.002zm-3.312-26.88h-28.702a3.987 3.987 0 0 0-3.939 3.366l-11.607 73.598a2.393 2.393 0 0 0 2.363 2.765h14.727c1.373 0 2.544-1 2.757-2.356l3.292-20.865a3.987 3.987 0 0 1 3.939-3.367h9.082c18.906 0 29.816-9.15 32.668-27.284 1.284-7.93.052-14.163-3.661-18.525-4.083-4.796-11.317-7.332-20.919-7.332" fill="#459adb"/><path d="M47.59 293.779c-1.569 10.302-9.437 10.302-17.048 10.302h-4.33l3.037-19.236a2.392 2.392 0 0 1 2.364-2.018h1.984c5.181 0 10.075 0 12.597 2.95 1.51 1.767 1.966 4.385 1.396 8.002zm-3.312-26.88H15.575a3.988 3.988 0 0 0-3.94 3.366L.03 343.863a2.393 2.393 0 0 0 2.363 2.765h13.704a3.988 3.988 0 0 0 3.94-3.367l3.132-19.854a3.986 3.986 0 0 1 3.938-3.367h9.083c18.905 0 29.817-9.15 32.668-27.284 1.284-7.93.052-14.163-3.661-18.525-4.082-4.796-11.317-7.332-20.919-7.332m66.634 53.301c-1.328 7.853-7.561 13.125-15.513 13.125-3.986 0-7.177-1.282-9.229-3.71-2.033-2.407-2.798-5.835-2.153-9.653 1.237-7.783 7.571-13.225 15.402-13.225 3.902 0 7.072 1.294 9.163 3.744 2.105 2.468 2.933 5.92 2.33 9.72zm19.154-26.75h-13.744a2.39 2.39 0 0 0-2.363 2.02l-.605 3.842-.96-1.392c-2.977-4.321-9.61-5.764-16.235-5.764-15.183 0-28.154 11.507-30.679 27.644-1.314 8.052.552 15.745 5.116 21.116 4.195 4.933 10.18 6.988 17.31 6.988 12.24 0 19.028-7.863 19.028-7.863l-.614 3.82a2.393 2.393 0 0 0 2.363 2.767h12.377a3.987 3.987 0 0 0 3.939-3.365l7.43-47.05a2.391 2.391 0 0 0-2.363-2.764" fill="#253b7d"/><path d="M315.627 320.2c-1.327 7.853-7.562 13.125-15.512 13.125-3.987 0-7.178-1.282-9.23-3.71-2.033-2.407-2.798-5.835-2.153-9.653 1.237-7.783 7.572-13.225 15.403-13.225 3.902 0 7.07 1.294 9.162 3.744 2.106 2.468 2.932 5.92 2.33 9.72zm19.154-26.75h-13.744a2.39 2.39 0 0 0-2.362 2.02l-.606 3.842-.96-1.392c-2.977-4.321-9.61-5.764-16.234-5.764-15.184 0-28.155 11.507-30.68 27.644-1.314 8.052.552 15.745 5.117 21.116 4.193 4.933 10.179 6.988 17.31 6.988 12.238 0 19.027-7.863 19.027-7.863l-.614 3.82a2.394 2.394 0 0 0 2.364 2.767h12.377a3.988 3.988 0 0 0 3.939-3.365l7.429-47.05a2.391 2.391 0 0 0-2.363-2.764" fill="#459adb"/><path d="M203.267 293.45h-13.815a3.989 3.989 0 0 0-3.299 1.747l-19.056 28.066-8.076-26.97a3.99 3.99 0 0 0-3.82-2.844h-13.58a2.394 2.394 0 0 0-2.265 3.166l15.212 44.648-14.308 20.188c-1.123 1.583.01 3.776 1.952 3.776h13.801a3.986 3.986 0 0 0 3.278-1.716l45.942-66.306c1.099-1.586-.036-3.756-1.966-3.756" fill="#253b7d"/><path d="M350.98 268.92l-11.78 74.944a2.393 2.393 0 0 0 2.364 2.764h11.847a3.987 3.987 0 0 0 3.938-3.367l11.616-73.596a2.393 2.393 0 0 0-2.364-2.766h-13.257a2.392 2.392 0 0 0-2.364 2.02M273.99 60.497c2.905-18.525-.02-31.13-10.04-42.548C252.916 5.38 232.987-.007 207.49-.007h-74.017a10.59 10.59 0 0 0-10.46 8.94l-30.821 195.44c-.609 3.856 2.372 7.343 6.276 7.343h45.693l-3.153 20c-.532 3.373 2.075 6.424 5.49 6.424h38.515a9.265 9.265 0 0 0 9.151-7.82l.377-1.957 7.256-46.01.468-2.542a9.262 9.262 0 0 1 9.15-7.82h5.762c37.312 0 66.528-15.16 75.066-59 3.566-18.319 1.722-33.611-7.711-44.36-2.853-3.252-6.403-5.94-10.543-8.134" fill="#459adb"/><path d="M273.99 60.497c2.905-18.525-.02-31.13-10.04-42.548C252.916 5.38 232.987-.007 207.49-.007h-74.017a10.59 10.59 0 0 0-10.46 8.94l-30.821 195.44c-.609 3.856 2.372 7.343 6.276 7.343h45.693l11.479-72.784-.356 2.281c.812-5.146 5.212-8.938 10.423-8.938h21.717c42.652 0 76.05-17.328 85.808-67.443.29-1.484.536-2.921.757-4.335" fill="#232d62"/><path d="M167.97 60.743a9.26 9.26 0 0 1 9.151-7.82h58.019c6.873 0 13.281.449 19.141 1.393 1.675.27 3.304.58 4.887.93 1.583.353 3.119.745 4.607 1.18.744.217 1.474.445 2.194.683 2.876.956 5.555 2.083 8.02 3.388 2.906-18.525-.02-31.13-10.04-42.548C252.917 5.38 232.988-.007 207.49-.007h-74.016a10.59 10.59 0 0 0-10.46 8.94l-30.821 195.44c-.609 3.856 2.372 7.343 6.276 7.343h45.693l11.479-72.784 12.33-78.19" fill="#253b7d"/></svg>