<svg width="231" height="31" viewBox="0 0 231 31" xmlns="http://www.w3.org/2000/svg" xmlns:xlink="http://www.w3.org/1999/xlink"><defs><path id="a" d="M0 .198h230.864v30.774H0"/></defs><g fill="none" fill-rule="evenodd"><path fill="#FFF" d="M0 0h231v31H0z"/><path d="M110.713 30.875c-2.338 0-7.813-8.772-7.813-12.513 0-4.245 3.506-7.7 7.813-7.7 4.308 0 7.813 3.455 7.813 7.7 0 3.741-5.477 12.513-7.813 12.513m0-18.29c3.231 0 5.861 2.592 5.861 5.777 0 3.245-4.488 9.712-5.861 10.54-1.374-.828-5.86-7.295-5.86-10.54 0-3.185 2.629-5.777 5.86-5.777zm-7.094-4.86a.937.937 0 0 1-.745-.364l-2.142-2.77a.911.911 0 0 1 .178-1.292.944.944 0 0 1 1.31.174l2.144 2.772a.913.913 0 0 1-.179 1.291.94.94 0 0 1-.566.189zm13.721-.348a.94.94 0 0 1-.566-.189.916.916 0 0 1-.178-1.293l2.142-2.77a.945.945 0 0 1 1.312-.176c.41.31.49.888.177 1.293l-2.142 2.77a.94.94 0 0 1-.745.365zm-6.819-1.852a.93.93 0 0 1-.935-.922V1.12c0-.509.419-.921.935-.921.517 0 .936.412.936.921v3.484a.929.929 0 0 1-.936.922zm.192 10.911c-.809 0-1.465.647-1.465 1.445 0 .797.656 1.444 1.465 1.444.81 0 1.465-.647 1.465-1.444 0-.798-.654-1.445-1.465-1.445z" fill="#17A8E6"/><mask id="b" fill="#fff"><use xlink:href="#a"/></mask><path d="M5.876 29.282c-1.86 0-3.426-.933-4.296-2.559l-.201-.376L0 27.103l.195.36c1.156 2.145 3.174 3.326 5.681 3.326 3.165 0 5.21-1.722 5.21-4.386 0-2.51-1.495-3.723-4.075-4.973l-1.447-.702c-2.117-1.02-2.868-1.642-2.868-3.106 0-1.41 1.148-2.433 2.73-2.433 1.521 0 2.537.53 3.291 1.718l.217.344 1.298-.745-.229-.364c-1.063-1.687-2.474-2.439-4.576-2.439-2.497 0-4.31 1.649-4.31 3.919 0 2.221 1.373 3.318 3.746 4.461l1.47.7c2.432 1.152 3.174 1.998 3.174 3.62 0 1.775-1.391 2.879-3.63 2.879m21.266-15.789L22.4 27.213 18.327 13.89h-1.642L21.966 31h.709l4.817-13.823L32.287 31h.71l5.28-17.11H36.66l-4.073 13.324-4.744-13.72h-.7m28.72 15.624h-8.865v-6.153h7.655v-1.483h-7.655v-6.107h8.533V13.89H45.396v16.714h10.467v-1.486m18.109 0h-8.865v-6.153h7.656v-1.483h-7.656v-6.107h8.533V13.89H63.505v16.714h10.467v-1.486m9.246-5.451h3.251c3.251 0 5.352-1.914 5.352-4.878 0-2.976-2.101-4.9-5.352-4.9h-4.854v16.715h1.603v-6.937zm0-8.292h3.157c2.37 0 3.843 1.308 3.843 3.414 0 2.093-1.472 3.392-3.843 3.392h-3.157v-6.806zm58.189 10.538c0-1.921-.852-3.272-2.535-4.022 1.133-.712 1.707-1.916 1.707-3.592 0-2.13-1.288-4.41-4.902-4.41h-5.589v16.715h5.873c3.36 0 5.446-1.798 5.446-4.69m-1.602 0c0 2.648-2.154 3.204-3.963 3.204h-4.152V22.71h4.152c2.556 0 3.963 1.137 3.963 3.203m-3.724-4.69h-4.39v-5.848h3.914c2.175 0 3.372 1.038 3.372 2.924 0 1.334-.503 2.924-2.896 2.924m14.549 2.372h3.446l4.38 6.817.123.192h1.853l-4.663-7.24c2.204-.597 3.559-2.323 3.559-4.575 0-3.384-2.688-4.9-5.352-4.9h-4.947v16.715h1.602v-7.009zm0-8.22h3.253c2.37 0 3.843 1.309 3.843 3.414 0 2.08-1.438 3.322-3.843 3.322h-3.252v-6.736zm16.743-1.485h1.602v16.713h-1.602zm17.843 16.9c2.802 0 4.888-.762 6.758-2.47l.136-.123v-5.549h-6.911v1.485h5.308v3.42c-1.341 1.178-3.026 1.729-5.29 1.729-4.028 0-7.066-3.025-7.066-7.035s2.967-7.034 6.901-7.034c2.208 0 3.847.682 5.156 2.147l.285.318 1.17-1.054-.277-.305c-1.57-1.736-3.702-2.616-6.334-2.616-4.783 0-8.529 3.754-8.529 8.544 0 4.87 3.739 8.543 8.693 8.543m16.304-7.825h8.78v7.638h1.603V13.89h-1.604v7.592h-8.778V13.89h-1.602v16.713h1.602v-7.638m17.409-9.075v1.485h5.165v15.228h1.602V15.375h5.167V13.89H218.93" fill="#56535C" mask="url(#b)"/></g></svg>