<svg xmlns="http://www.w3.org/2000/svg" width="180" height="41" viewBox="0 0 180 41"><path fill="#5FCF80" d="M39.969 15.419a2.198 2.198 0 0 0-1.604-1c-.317-.039-.648-.093-.961-.143-.401-.061-.813-.126-1.219-.17-1.083-.11-1.747-.561-2.148-1.445-.275-.604-.308-1.143-.1-1.675l.155-.401a70.54 70.54 0 0 1 .845-2.126c.286-.681.264-1.351-.065-1.999-.604-1.187-1.554-2.011-2.817-2.445-.715-.247-1.424-.154-2.066.269-.307.198-.626.39-.938.577-.435.264-.885.538-1.308.835-.296.208-.67.318-1.077.318-1.016 0-2-.67-2.241-1.521-.126-.456-.28-.906-.429-1.34a29.101 29.101 0 0 1-.374-1.126c-.236-.796-.758-1.346-1.554-1.637a6.726 6.726 0 0 0-.698-.203c-.093-.027-.197-.055-.291-.083L21.03.093h-1.313l-.05.017c-.027.006-.049.017-.076.027a.66.66 0 0 1-.104.028c-1.34.242-2.142.923-2.44 2.098-.131.517-.317 1.038-.493 1.538-.094.27-.188.539-.275.808-.264.802-1.214 1.434-2.165 1.434-.378 0-.736-.104-1.026-.308a34.084 34.084 0 0 0-1.626-1.027c-.258-.159-.516-.313-.769-.472-.5-.313-1.049-.407-1.592-.269-1.476.361-2.557 1.262-3.222 2.674-.263.566-.275 1.186-.022 1.801.115.28.225.561.335.846.165.434.335.879.527 1.313.395.89.352 1.676-.149 2.461-.34.539-.785.857-1.362.967-.83.16-1.719.297-2.647.407-.786.088-1.396.478-1.818 1.159-.571.923-.813 1.972-.726 3.109.083 1.066.594 1.829 1.517 2.269.335.16.664.352.989.533.356.203.72.412 1.104.593.55.252.961.835 1.093 1.543.137.737-.049 1.484-.495 1.939a30.07 30.07 0 0 0-1.807 2.071 2.564 2.564 0 0 0-.523 1.121c-.268 1.532 1.017 3.801 2.457 4.339.356.132.807.17 1.219.109a29.06 29.06 0 0 0 2.45-.494c.896-.22 1.588-.034 2.252.621.499.494.725 1.027.708 1.691-.021.852-.043 1.764-.082 2.687a2.269 2.269 0 0 0 .709 1.791c.797.78 1.797 1.242 2.982 1.368.133.017.258.022.385.022.901 0 1.631-.385 2.154-1.143.208-.292.434-.566.675-.857.248-.302.5-.609.731-.939.378-.56 1.076-.895 1.856-.895.764 0 1.456.33 1.846.874.319.45.67.884 1.006 1.302.208.253.417.511.615.774.384.5.906.791 1.494.846 1.428.132 2.708-.308 3.795-1.302.521-.478.769-1.093.73-1.834-.021-.324-.027-.665-.033-.989-.01-.429-.022-.868-.055-1.302-.076-1.022.243-1.758.995-2.313.499-.363.988-.495 1.521-.407.961.159 1.819.335 2.626.539.834.203 1.604.011 2.273-.583a5.009 5.009 0 0 0 1.626-2.785c.198-.928-.022-1.73-.654-2.384a19.49 19.49 0 0 1-.72-.807 16.749 16.749 0 0 0-.726-.819c-.691-.713-.883-1.45-.625-2.383.176-.654.499-1.093 1.005-1.379a68.06 68.06 0 0 1 2.373-1.296c.615-.324 1.01-.824 1.169-1.488.345-1.397.114-2.715-.683-3.918z"/><path fill="#FFF" d="M27.182 15.271l-.627-1.318a.907.907 0 0 0-.516-.461.886.886 0 0 0-.692.033l-4.636 2.219.006-.082.06-1.45c-.011-.066.016-.324.016-.363.006-.774.049-.719.116-2.192a.385.385 0 0 0-.137-.308.364.364 0 0 0-.325-.071c-.642.159-1.439.329-2.367.505a.385.385 0 0 0-.308.352c-.11 1.357-.094 1.039-.147 1.675l-.149 1.808v.011l-.094 1.708-1.96.939-.752-1.587a.908.908 0 0 0-1.203-.428l-1.318.625a.903.903 0 0 0-.428 1.203l1.763 3.725a.898.898 0 0 0 .511.461c.1.039.204.055.302.055.137 0 .27-.027.39-.088l2.494-1.192-.072 1.318a238.933 238.933 0 0 0-.153 2.944c-.012.281-.017.483-.017.605 0 .912.164 1.659.489 2.213.335.565.818.983 1.439 1.236.588.248 1.362.368 2.302.368.368 0 .769-.022 1.181-.061.417-.044.978-.148 1.675-.308a.384.384 0 0 0 .286-.308c.055-.363.116-.813.166-1.247.065-.527.131-1.071.192-1.33a.377.377 0 0 0-.537-.417c-.676.341-1.055.478-1.67.593-.215.044-.402.044-.605.044h-.098c-.286 0-.666-.093-.973-.242-.28-.138-.346-.187-.396-.417-.088-.434-.088-.527-.088-1.043v-.225l.017-.638.22-4.691 6.218-2.972a.902.902 0 0 0 .425-1.201z"/><path d="M49.594 32.602c-.934 0-1.649-.28-2.148-.835-.5-.555-.752-1.274-.752-2.165 0-.396.054-.884.164-1.467l1.758-10.107h-2.702l.456-2.477h2.675l1.039-5.806 2.939-1.077-1.209 6.883h3.912l-.423 2.477h-3.912l-1.697 9.487c-.088.648-.127 1.065-.127 1.236 0 .874.434 1.307 1.302 1.307.736 0 1.588-.274 2.543-.818l-.72 2.675c-.89.456-1.923.687-3.098.687zm13.304 0c-1.874 0-3.356-.654-4.466-1.956-1.11-1.307-1.666-2.988-1.666-5.053 0-2.934.797-5.411 2.396-7.421 1.599-2.005 3.636-3.016 6.114-3.016 1.802 0 3.225.522 4.257 1.565 1.028 1.043 1.543 2.62 1.543 4.729 0 1.066-.203 2.235-.615 3.521h-10.86v.423c0 1.478.319 2.631.95 3.455.626.829 1.517 1.242 2.67 1.242 1.308 0 2.577-.478 3.818-1.434l1.302 1.956c-1.653 1.324-3.466 1.989-5.443 1.989zm-2.9-10.042h8.246c.109-.632.153-1.11.131-1.434-.022-1.242-.341-2.132-.961-2.675-.621-.544-1.385-.813-2.301-.813-1.369 0-2.483.467-3.34 1.4-.859.935-1.452 2.11-1.775 3.522zm18.187 10.042c-1.258 0-2.385-.269-3.373-.802-.989-.533-1.758-1.242-2.297-2.137l2.05-1.626c.961 1.434 2.219 2.148 3.784 2.148.934 0 1.708-.215 2.33-.648.621-.434.928-1.055.928-1.862 0-.583-.247-1.099-.747-1.544a7.189 7.189 0 0 0-1.824-1.159 31.757 31.757 0 0 1-2.153-1.076 5.543 5.543 0 0 1-1.83-1.599c-.5-.67-.748-1.467-.748-2.379 0-1.456.545-2.614 1.632-3.472 1.088-.856 2.466-1.291 4.136-1.291 2.5 0 4.296.862 5.384 2.576l-1.989 1.5c-.934-1.125-2.12-1.692-3.554-1.692-.873 0-1.582.204-2.137.615-.555.417-.83.962-.83 1.631 0 .522.253.983.764 1.385.511.406 1.126.769 1.846 1.093.714.33 1.439.692 2.165 1.093.73.401 1.345.961 1.856 1.681.511.713.769 1.576.769 2.576 0 1.521-.56 2.73-1.681 3.63-1.119.908-2.613 1.359-4.481 1.359zm13.529 0c-.934 0-1.653-.28-2.153-.835-.5-.555-.748-1.274-.748-2.165 0-.396.055-.884.166-1.467l1.758-10.107h-2.704l.456-2.477h2.671l1.043-5.806 2.933-1.077-1.202 6.883h3.911l-.423 2.477h-3.911l-1.698 9.487c-.088.648-.131 1.065-.131 1.236 0 .874.434 1.307 1.307 1.307.737 0 1.582-.274 2.544-.818l-.719 2.675c-.892.456-1.924.687-3.1.687zm12.354 0c-1.257 0-2.384-.269-3.373-.802-.989-.533-1.752-1.242-2.296-2.137l2.054-1.626c.955 1.434 2.214 2.148 3.779 2.148.934 0 1.713-.215 2.334-.648.615-.434.928-1.055.928-1.862 0-.583-.253-1.099-.752-1.544a7.218 7.218 0 0 0-1.823-1.159 32.989 32.989 0 0 1-2.154-1.076 5.574 5.574 0 0 1-1.824-1.599c-.5-.67-.752-1.467-.752-2.379 0-1.456.544-2.614 1.631-3.472 1.087-.856 2.467-1.291 4.142-1.291 2.5 0 4.29.862 5.377 2.576l-1.988 1.5c-.933-1.125-2.12-1.692-3.553-1.692-.869 0-1.582.204-2.138.615-.554.417-.83.962-.83 1.631 0 .522.253.983.764 1.385.511.406 1.126.769 1.846 1.093.713.33 1.439.692 2.165 1.093a5.54 5.54 0 0 1 1.862 1.681c.511.713.763 1.576.763 2.576 0 1.521-.561 2.73-1.675 3.63-1.118.908-2.613 1.359-4.487 1.359zm9.554-.396l2.933-16.655h2.741l-2.934 16.655h-2.74zm4.86-19.721c-.417 0-.764-.143-1.044-.423a1.414 1.414 0 0 1-.423-1.043c0-.566.198-1.049.599-1.45.406-.407.857-.604 1.357-.604.456 0 .819.142 1.087.423.275.28.413.632.413 1.043a1.98 1.98 0 0 1-.605 1.45c-.4.401-.862.604-1.384.604zm5.867 24.351c1.588-.088 2.878-.335 3.879-.747 1-.417 1.713-.9 2.137-1.45.423-.555.719-1.236.895-2.038l.325-1.895c-1.089 1.263-2.511 1.895-4.269 1.895-1.675 0-2.999-.638-3.976-1.912-.979-1.269-1.467-2.917-1.467-4.938 0-3.103.758-5.646 2.279-7.624 1.522-1.978 3.466-2.972 5.839-2.972 1.692 0 3.027.621 4.01 1.862l.258-1.466H137l-2.972 16.622c-.235 1.352-.615 2.483-1.137 3.395-.521.912-1.192 1.604-2.005 2.088a8.903 8.903 0 0 1-2.527 1.011c-.868.192-1.911.324-3.131.39l-.879-2.221zm3.746-6.811c.808 0 1.572-.231 2.302-.687a5.435 5.435 0 0 0 1.741-1.725l1.341-7.663c-.243-.61-.665-1.138-1.275-1.582-.609-.445-1.323-.67-2.153-.67-1.67 0-2.994.752-3.961 2.252-.967 1.499-1.45 3.323-1.45 5.476 0 1.412.313 2.532.928 3.356.62.831 1.462 1.243 2.527 1.243zm11.218 2.181l2.933-16.655h2.708l-.297 1.598c1.219-1.329 2.697-1.994 4.432-1.994.917 0 1.714.226 2.401.67a3.81 3.81 0 0 1 1.483 1.841c1.389-1.67 3.114-2.511 5.18-2.511 1.345 0 2.472.423 3.373 1.258.906.835 1.357 2.005 1.357 3.504 0 .478-.045.934-.133 1.368l-1.922 10.92h-2.808l1.829-10.267c.066-.456.1-.89.1-1.302 0-.983-.23-1.714-.687-2.203s-1.077-.736-1.857-.736c-.934 0-1.801.379-2.592 1.126-.797.752-1.302 1.78-1.516 3.082l-1.824 10.3h-2.807l1.795-10.267a6.58 6.58 0 0 0 .126-1.302c0-.983-.225-1.714-.681-2.203-.456-.489-1.087-.736-1.895-.736-.956 0-1.829.379-2.62 1.126-.797.752-1.302 1.78-1.517 3.082l-1.829 10.3h-2.732zm35.99 0l.225-1.368c-1.302 1.175-2.868 1.763-4.691 1.763-1.478 0-2.664-.439-3.554-1.324-.889-.879-1.334-2.049-1.334-3.505 0-2.065.676-3.625 2.038-4.691 1.357-1.066 3-1.598 4.938-1.598 1.544 0 2.89.39 4.043 1.175l.226-1.274c.109-.544.164-.978.164-1.301 0-.896-.252-1.533-.752-1.929-.5-.39-1.126-.582-1.89-.582-1.697 0-3.455.582-5.278 1.758l-.363-2.313c2.044-1.241 4.022-1.862 5.939-1.862 1.302 0 2.461.362 3.471 1.077 1.012.72 1.517 1.895 1.517 3.521 0 .412-.055.967-.165 1.665l-1.889 10.789h-2.645zm-3.878-2.021c1.67 0 3.213-.726 4.625-2.181l.489-2.9c-1.148-.829-2.369-1.242-3.648-1.242-1.219 0-2.241.308-3.064.913-.83.609-1.242 1.521-1.242 2.741 0 .78.247 1.423.736 1.923.49.498 1.187.746 2.104.746z" fill="#4C4C4C"/></svg>