<svg width="160" height="32" viewBox="0 0 160 32" xmlns="http://www.w3.org/2000/svg"><g fill="none" fill-rule="evenodd"><g fill="#1396E4"><path d="M18 24.491a14.292 14.292 0 0 1-5.93 1.27c-2.073 0-4.07-.428-5.937-1.273a1.064 1.064 0 0 0-1.401.506 1.028 1.028 0 0 0 .516 1.375 16.425 16.425 0 0 0 6.822 1.465c2.377 0 4.67-.491 6.813-1.46.53-.24.761-.856.517-1.376a1.065 1.065 0 0 0-1.4-.507zm6.14-12.649C24.14 5.302 18.736 0 12.07 0S0 5.302 0 11.842c0 6.54 5.404 11.841 12.07 11.841s12.07-5.301 12.07-11.841zM12.07 21.61c-5.5 0-9.958-4.374-9.958-9.77 0-5.395 4.458-9.768 9.958-9.769 5.5 0 9.958 4.374 9.958 9.77 0 5.395-4.459 9.769-9.958 9.769zm4.841 7.546c-1.561.476-3.19.717-4.841.717-1.661 0-3.3-.243-4.868-.725a1.06 1.06 0 0 0-1.324.68 1.033 1.033 0 0 0 .693 1.298c1.774.544 3.624.82 5.499.82 1.864 0 3.704-.273 5.468-.81.557-.17.868-.751.695-1.297a1.06 1.06 0 0 0-1.322-.683z"/><path d="M15.743 17.112l-.537-5.342-.058-.584h-.001s-.084-.835.904-1.804c.44-.432 2.04-2.234 1.422-2.84-.619-.608-2.456.962-2.896 1.394-.987.969-1.838.886-1.838.886l-6.04-.584s-.342-.034-.585.205l-.459.45c-.242.237.072.372.072.372l4.893 2.098s.307.123-.036.49A148.19 148.19 0 0 0 8.6 14.268a1.34 1.34 0 0 1-.61.31c-.51-.067-1.389-.182-1.628-.194a.413.413 0 0 0-.082.006c-.31.03-.586.296-.586.296l-.15.147s-.192.189.11.35c.08.043 1.076.573 1.591.854.28.166.55.54.55.54.242.428.646 1.155.87 1.56.165.297.355.11.355.11l.15-.147s.273-.271.304-.576a.393.393 0 0 0 .005-.081c-.003-.066-.132-1.063-.203-1.61.045-.238.194-.444.318-.581 1.158-.915 1.93-1.506 2.464-1.951.374-.337.498-.035.499-.034l2.14 4.798c.137.309.38.07.38.07l.458-.449c.242-.238.208-.573.208-.573z"/></g><path d="M37.52 10.78h5.721v14.47h2.704V10.78h5.697V8.436H37.52zm43.654 12.268l-3.597-10.183h-2.96l4.829 12.386h3.29l4.829-12.386h-2.746zm21.113-.426c0 .9.257 1.595.772 2.084.464.441 1.093.681 1.883.725V8.436h-2.655v14.186zm-2.233-6.051a6.223 6.223 0 0 0-.206-.468 6.032 6.032 0 0 0-1.112-1.653 6.349 6.349 0 0 0-2.029-1.419c-.792-.355-1.676-.534-2.652-.534-.992 0-1.889.174-2.689.522-.8.348-1.484.825-2.052 1.43a6.449 6.449 0 0 0-1.152 1.72 6.583 6.583 0 0 0-.672 2.924 6.491 6.491 0 0 0 .648 2.859c.298.654.69 1.238 1.176 1.75a6.19 6.19 0 0 0 2.052 1.418c.8.348 1.689.522 2.665.522 1.328 0 2.492-.304 3.493-.91 1-.606 1.716-1.386 2.148-2.34l.032-.078-2.27-.64a2.824 2.824 0 0 1-.53.782 3.378 3.378 0 0 1-.773.604c-.29.166-.607.293-.953.38a4.3 4.3 0 0 1-1.05.13 3.76 3.76 0 0 1-3.416-2.156 4.175 4.175 0 0 1-.398-1.492h10.114a9.17 9.17 0 0 0 .049-.414 6.58 6.58 0 0 0-.423-2.937m-8.606-1.018a3.829 3.829 0 0 1 2.583-.983c.499 0 .974.087 1.424.26.45.174.845.415 1.183.723.338.308.616.683.833 1.125.19.387.315.804.376 1.25h-7.584c.06-.446.181-.863.364-1.25.21-.442.483-.817.821-1.125M52.39 12.845h2.652v1.006c.488-.5.92-.844 1.297-1.029.385-.192.84-.289 1.367-.289.7 0 1.43.224 2.193.67l-1.214 2.383c-.503-.355-.995-.532-1.474-.532-1.446 0-2.169 1.072-2.169 3.215v6.982H52.39V12.845zm17.566.165h2.863v12.106h-2.863v-1.268c-1.174 1.078-2.436 1.616-3.788 1.616-1.706 0-3.116-.605-4.23-1.815-1.107-1.234-1.66-2.775-1.66-4.623 0-1.814.553-3.326 1.66-4.536 1.106-1.21 2.49-1.815 4.154-1.815 1.436 0 2.724.58 3.864 1.74v-1.404zm-6.963 6.013c0 1.234.33 2.239.991 3.014.678.785 1.533 1.177 2.564 1.177 1.101 0 1.99-.38 2.67-1.137.678-.785 1.017-1.78 1.017-2.988s-.34-2.204-1.018-2.988c-.678-.767-1.56-1.15-2.643-1.15-1.022 0-1.876.387-2.564 1.163-.678.784-1.017 1.754-1.017 2.909zm57.737-8.87a5.47 5.47 0 0 0-1.678-1.243 4.836 4.836 0 0 0-2.137-.474h-7.193V25.25h2.703V19.4h4.635c.772 0 1.476-.154 2.112-.462a5.1 5.1 0 0 0 1.63-1.231c.45-.513.8-1.098 1.05-1.753a5.717 5.717 0 0 0 .374-2.048c0-.68-.133-1.346-.398-2.002a5.856 5.856 0 0 0-1.099-1.752m-1.448 5.009c-.13.379-.306.71-.531.994a2.3 2.3 0 0 1-1.859.9h-4.466V10.78h4.321c.354 0 .696.075 1.026.226.33.15.624.363.881.639s.459.604.604.983c.145.379.217.805.217 1.279 0 .458-.065.876-.193 1.255m22.874-2.34c-.378.185-.81.528-1.297 1.03v-1.007h-2.652v12.406h2.652v-6.982c0-2.143.723-3.215 2.169-3.215.479 0 .97.177 1.473.532l1.214-2.382c-.762-.447-1.493-.671-2.192-.671-.527 0-.983.096-1.367.289m16.425.066h-3.38l-5.312 5.514V7.962h-2.655v17.289h2.655v-3.766l2.1-1.942 4.032 5.708h2.848l-5.165-7.176zm-23.15 3.215a6.03 6.03 0 0 0-1.113-1.653 6.352 6.352 0 0 0-2.028-1.42c-.793-.354-1.677-.533-2.653-.533-.992 0-1.888.174-2.688.522-.8.348-1.485.824-2.053 1.43a6.445 6.445 0 0 0-1.152 1.72 6.579 6.579 0 0 0-.673 2.924 6.486 6.486 0 0 0 .649 2.859c.299.654.69 1.238 1.176 1.75a6.191 6.191 0 0 0 2.053 1.418c.8.348 1.688.522 2.664.522 1.328 0 2.492-.304 3.493-.91 1-.606 1.716-1.386 2.148-2.34l.032-.078-2.269-.64a2.82 2.82 0 0 1-.53.782 3.373 3.373 0 0 1-.773.604c-.29.166-.608.293-.954.379a4.29 4.29 0 0 1-1.05.13 3.76 3.76 0 0 1-2.571-1.006 3.923 3.923 0 0 1-.845-1.149 4.18 4.18 0 0 1-.398-1.492h10.114a9.61 9.61 0 0 0 .049-.414 6.58 6.58 0 0 0-.422-2.937 6.224 6.224 0 0 0-.207-.468zm-9.586 1.826c.06-.447.181-.864.365-1.251a3.56 3.56 0 0 1 .82-1.125 3.761 3.761 0 0 1 1.171-.723c.443-.173.913-.26 1.412-.26.499 0 .974.087 1.425.26.45.174.845.415 1.182.723.339.307.616.683.833 1.125.19.387.316.804.377 1.25h-7.585z" fill="#454B56"/></g></svg>